#!OML:ASF X:\für Bonn\!DataBase\2005_08_11_Bastian_Final\c3d\Bastian.ASF
:FULLY-SPECIFIED
:DEGREES
176
root -0.956706 13.0395 24.2927 -734.833 -196.201 -723.594
lowerback 70.6295 -14.0804 -3.03805
upperback 17.8065 -4.69572 4.95859
thorax -0.535718 1.42171 8.60731
lowerneck -27.3138 2.54177 -0.300252
upperneck -12.2844 5.62505 -6.89438
head 0.635487 3.74396 -1.74477
rclavicle -7.95139e-014 1.39348e-013
rhumerus 11.5458 9.40653 -59.3222
rradius 30.184
rwrist -10.4852
rhand -25.3115 1.71989
rfingers 7.12502
rthumb 1.21073 -28.2564
lclavicle -7.95139e-014 1.39348e-013
lhumerus 24.3886 -25.5053 33.2099
lradius 46.8712
lwrist 22.5094
lhand -11.0616 -10.8189
lfingers 7.12502
lthumb 14.9611 18.6207
rfemur -50.2058 -5.34262 17.7496
rtibia 91.7666
rfoot -21.4378 4.29084
rtoes -3.47417
lfemur -48.4741 13.5627 -24.7409
ltibia 87.8031
lfoot -20.8177 -5.52808
ltoes -6.52202
177
root -0.951916 12.8724 24.3103 -735.025 -196.26 -723.562
lowerback 70.8653 -14.0922 -3.10825
upperback 17.9101 -4.64585 4.88313
thorax -0.406572 1.47901 8.53523
lowerneck -27.2429 2.58603 -0.242118
upperneck -12.3677 5.66546 -7.02004
head 0.603705 3.76702 -1.7962
rclavicle -1.59028e-015 1.88448e-013
rhumerus 11.5302 9.17294 -59.325
rradius 30.0654
rwrist -10.9129
rhand -25.3115 1.68717
rfingers 7.12502
rthumb 1.2107 -28.2891
lclavicle -1.59028e-015 1.88448e-013
lhumerus 24.5977 -25.1528 32.3692
lradius 46.9118
lwrist 22.4761
lhand -11.0672 -10.9292
lfingers 7.12502
lthumb 14.9557 18.5108
rfemur -51.1772 -5.48457 17.9129
rtibia 93.3605
rfoot -21.8881 4.25934
rtoes -3.55
lfemur -49.479 13.722 -24.6849
ltibia 89.5167
lfoot -21.3205 -5.58833
ltoes -6.50987
178
root -0.947086 12.7037 24.3274 -735.244 -196.312 -723.558
lowerback 71.1217 -14.0756 -3.21647
upperback 17.9937 -4.59211 4.83534
thorax -0.29662 1.53062 8.50849
lowerneck -27.1359 2.62162 -0.268017
upperneck -12.4436 5.71473 -7.09934
head 0.56474 3.79773 -1.81686
rclavicle -8.74653e-015 -1.12313e-013
rhumerus 11.5385 8.93647 -59.3099
rradius 29.8662
rwrist -11.3648
rhand -25.3029 1.74623
rfingers 7.12502
rthumb 1.21905 -28.23
lclavicle -8.74653e-015 -1.12313e-013
lhumerus 24.7687 -24.8159 31.5986
lradius 46.9665
lwrist 22.467
lhand -11.0439 -11.0498
lfingers 7.12502
lthumb 14.9782 18.3885
rfemur -52.1337 -5.60402 18.0348
rtibia 94.9442
rfoot -22.3149 4.24685
rtoes -3.48688
lfemur -50.4656 13.8899 -24.6605
ltibia 91.2205
lfoot -21.8156 -5.6499
ltoes -6.51678
179
root -0.940586 12.5327 24.3443 -735.444 -196.378 -723.509
lowerback 71.3817 -14.0564 -3.29704
upperback 18.0623 -4.52289 4.79413
thorax -0.205492 1.58932 8.47178
lowerneck -26.9922 2.66811 -0.235664
upperneck -12.556 5.75948 -7.22942
head 0.511446 3.82541 -1.86662
rclavicle 3.26007e-014 2.66371e-014
rhumerus 11.5368 8.75064 -59.2549
rradius 29.674
rwrist -11.9141
rhand -25.2698 1.7297
rfingers 7.12502
rthumb 1.25099 -28.2464
lclavicle 3.26007e-014 2.66371e-014
lhumerus 24.9094 -24.5564 30.8007
lradius 47.0733
lwrist 22.5601
lhand -11.1152 -11.119
lfingers 7.12502
lthumb 14.9095 18.3244
rfemur -53.099 -5.7167 18.2224
rtibia 96.5232
rfoot -22.7291 4.21837
rtoes -3.30623
lfemur -51.4794 14.0689 -24.5772
ltibia 92.9201
lfoot -22.2914 -5.73765
ltoes -6.54822
